# xmcd
#
# Track frame offsets:
#	150
#	18037
#	32344
#	58605
#	76540
#	93566
#	109338
#	125749
#	145084
#	161785
#	186453
#	203878
#	223675
#	238765
#
# Disc length: 3467 seconds
#
# Revision: 1
# Processed by: cddbd v1.5.2PL0 Copyright (c) Steve Scherf et al.
# Submitted via: audiograbber 1.83.01
#
DISCID=c00d890e
DTITLE=Crazy Chris Kramer - ...unterwegs
DYEAR=2009
DGENRE=Blues
TTITLE0=Meister-Igel
TTITLE1=Du gabst mir 7 Kinder
TTITLE2=Ich hab Scheiß gebaut
TTITLE3=Dein Herz schlägt wie es schlägt
TTITLE4=Ich wollte immer klingen wie James Brown
TTITLE5=Nichts dauert ewig
TTITLE6=Ich such den ganz besonderen Ton
TTITLE7=Hätt ich nur einen Moment Zeit
TTITLE8=Biggis Bier Bar
TTITLE9=Benedicita
TTITLE10=Bleib bis zum Frühstück
TTITLE11=Es gibt gut, besser und es gibt mich
TTITLE12=Ich beiß mich da jetzt durch
TTITLE13=Work Song
EXTD=unter anderem mit: Mel Gaynor,Martin Engelien,Mick Taylor,Chuck Leavell,He
EXTD=lge Schneider,Pete York,Colin Hodgkinson,Albis Donnely,Pinetop Perkins,Wil
EXTD=lie "Big Eyes" Smith,Bob Stroger,Little Frank Karkowski,Hennes Bender,Joch
EXTD=en Malmsheimer,Pavel Popolski,Giovanni Arvaneh,Katrin Ritt,Nils Brunkhorst
EXTD=\n\nSony Music 2009\n\nwww.chris-kramer.de
EXTT0=
EXTT1=
EXTT2=
EXTT3=
EXTT4=
EXTT5=
EXTT6=
EXTT7=
EXTT8=
EXTT9=
EXTT10=
EXTT11=
EXTT12=
EXTT13=
PLAYORDER=
